<svg width='100' height='100' fill="#3498db" xmlns="http://www.w3.org/2000/svg" data-name="Layer 1" viewBox="0 0 100 100" x="0px" y="0px"><title>34</title><g data-name="Group"><path data-name="Compound Path" d="M87.7,6a11.9,11.9,0,0,0-11.1,7.9H60.9a11.8,11.8,0,0,0-22.3,0H23.5A11.8,11.8,0,1,0,12.3,29.7l2.1-.2,7.3,12.6a11.8,11.8,0,0,0,9.2,19.3l1.9-.2,7.8,13.5a11.8,11.8,0,1,0,18.5,0l7.8-13.5,1.9.2a11.8,11.8,0,0,0,9.2-19.3l7.3-12.7,2.5.3A11.8,11.8,0,1,0,87.7,6Zm-19,31.7H67L59.4,24.7a11.8,11.8,0,0,0,1.5-2.8H76.5a11.8,11.8,0,0,0,1.8,3.3L71,38ZM49.8,70.3l-2.4.3L39.8,57.4a11.9,11.9,0,0,0,1.6-2.3H58.2a11.9,11.9,0,0,0,1.6,2.3L52.2,70.5ZM28.6,38,21.4,25.5a11.8,11.8,0,0,0,2.1-3.6H38.7a11.8,11.8,0,0,0,1.5,2.8L32.5,37.9H30.9Zm24.3-8.7,7.1,12.3a11.8,11.8,0,0,0-2.9,5.5H42.5a11.8,11.8,0,0,0-2.9-5.5l7.1-12.3a11.5,11.5,0,0,0,6.1,0ZM49.8,14a3.8,3.8,0,1,1-3.8,3.8A3.8,3.8,0,0,1,49.8,14ZM8.5,17.9a3.8,3.8,0,1,1,3.8,3.8A3.8,3.8,0,0,1,8.5,17.9ZM27,49.6a3.8,3.8,0,1,1,3.8,3.8A3.8,3.8,0,0,1,27,49.6ZM49.8,86a3.8,3.8,0,1,1,3.8-3.8A3.8,3.8,0,0,1,49.8,86ZM68.7,53.5a3.8,3.8,0,1,1,3.8-3.8A3.8,3.8,0,0,1,68.7,53.5Zm19-31.7a3.8,3.8,0,1,1,3.8-3.8A3.8,3.8,0,0,1,87.7,21.7Z"/></g></svg>